<?xml version="1.0" encoding="UTF-8" standalone="no"?>
<svg width="59px" height="66px" viewBox="0 0 59 66" version="1.1" xmlns="http://www.w3.org/2000/svg" xmlns:xlink="http://www.w3.org/1999/xlink" xmlns:sketch="http://www.bohemiancoding.com/sketch/ns">
    <!-- Generator: Sketch 3.5.1 (25234) - http://www.bohemiancoding.com/sketch -->
    <title>Calque_1</title>
    <desc>Created with Sketch.</desc>
    <defs></defs>
    <g id="About-me" stroke="none" stroke-width="1" fill="none" fill-rule="evenodd" sketch:type="MSPage">
        <g id="Desktop" sketch:type="MSArtboardGroup" transform="translate(-1102.000000, -547.000000)">
            <g id="rocket" sketch:type="MSLayerGroup" transform="translate(1136.658620, 575.711488) rotate(39.000000) translate(-1136.658620, -575.711488) translate(1117.658620, 538.711488)">
                <g id="Calque_1" transform="translate(-0.000000, -0.000000)" sketch:type="MSShapeGroup">
                    <g id="base" transform="translate(-0.000000, 42.841284)" fill="#53D1A7">
                        <path d="M10.2535623,16.9997862 L4.22474172,29.6698681 C4.22474172,29.6698681 -0.936294111,15.0628132 0.342546626,10.3457144 L6.57689522,0.0455758342 C6.59973166,0.0455758342 7.90140884,12.1687477 10.2535623,16.9997862 L10.2535623,16.9997862 Z" id="Shape"></path>
                        <path d="M27.4722394,16.9997862 L33.50106,29.6698681 C33.50106,29.6698681 38.6620959,15.0628132 37.3832551,10.3457144 L31.1489065,0.0455758342 C31.1489065,0.0455758342 29.8472294,12.1687477 27.4722394,16.9997862 L27.4722394,16.9997862 Z" id="Shape"></path>
                    </g>
                    <path d="M10.2992352,59.8410703 C10.2992352,59.8410703 -0.776439019,31.606841 9.75116062,11.5306861 C9.75116062,11.5306861 18.7943916,17.5466962 28.4770429,11.5306861 C28.4770429,11.5306861 39.0274789,27.9607743 27.5179123,59.8410703 C27.5179123,59.8410703 20.3244332,65.8570804 10.2992352,59.8410703 L10.2992352,59.8410703 Z" id="body" fill="#2E3C51"></path>
                    <path d="M19.0912653,73.2631535 C19.0912653,73.2631535 14.5696498,52.6400885 19.0912653,43.7300129 C19.0912653,43.7300129 23.7042265,50.9309947 19.0912653,73.2631535 L19.0912653,73.2631535 Z" id="Shape" fill="#53D1A7"></path>
                    <g id="Group" transform="translate(9.591306, 0.000000)" fill="#53D1A7">
                        <path id="Shape" d="M18.8857373,11.5306861 C18.8857373,11.5306861 18.9770831,11.7357773 19.1369382,12.0092323 C19.0455924,11.8497169 18.9770831,11.7129894 18.8857373,11.5306861 L18.8857373,11.5306861 Z"></path>
                        <path d="M9.52279621,0.182303337 C2.94590098,4.76267467 0.182691534,11.5306861 0.182691534,11.5306861 C10.2535623,18.8683954 18.9085738,11.5306861 18.9085738,11.5306861 C15.8028177,5.49188802 9.52279621,0.182303337 9.52279621,0.182303337 L9.52279621,0.182303337 Z" id="Shape"></path>
                        <path id="Shape" d="M19.1369382,12.0092323 C19.1619382,12.0548081 19.1869382,12.1231719 19.2369382,12.1687477 C19.1869382,12.1231719 19.1619382,12.0548081 19.1369382,12.0092323 L19.1369382,12.0092323 Z"></path>
                        <path d="M19.6393399,12.9891127 C19.8905408,13.4904469 20.0732323,13.8322657 20.1645781,14.014569 C20.0503958,13.7866898 19.8448679,13.3992953 19.6393399,12.9891127 L19.6393399,12.9891127 Z" id="Shape"></path>
                        <path id="Shape" d="M20.1645781,14.014569 C20.2855413,14.2424482 20.3097339,14.288024 20.1645781,14.014569 L20.1645781,14.014569 L20.1645781,14.014569 Z"></path>
                        <path id="Shape" d="M19.2282839,12.1687477 C19.3653026,12.4194148 19.5023212,12.7156577 19.6393399,12.9891127 C19.5251577,12.7612336 19.388139,12.4877786 19.2282839,12.1687477 L19.2282839,12.1687477 Z"></path>
                    </g>
                </g>
            </g>
        </g>
    </g>
</svg>